<?xml version="1.0" encoding="utf-8"?>
<!-- Generator: Adobe Illustrator 21.1.0, SVG Export Plug-In . SVG Version: 6.00 Build 0)  -->
<svg version="1.1" id="Ebene_1" xmlns="http://www.w3.org/2000/svg" xmlns:xlink="http://www.w3.org/1999/xlink" x="0px" y="0px"
	 viewBox="0 0 118 118" style="enable-background:new 0 0 118 118;" xml:space="preserve">
<style type="text/css">
	.st0{fill:#FFFF00;}
	.st1{stroke:#FFFF00;stroke-width:3;stroke-miterlimit:10;}
</style>
<g>
	<path class="st0" d="M7.8,19.3c0,30.7,0,61.3,0,91.8c34.4,0,68.4,0,102.5,0c0-30.7,0-61.1,0-91.6c-4.9,0-9.5,0-14,0
		c-1.1,10-4.3,14.1-10.9,14.4c-7,0.3-10.2-3.5-12.1-14.3c-9.6,0-19.2,0-28.7,0c-0.9,9.8-4,13.9-10.6,14.3
		c-7.1,0.4-10.2-3.2-12.5-14.6C17.1,19.3,12.5,19.3,7.8,19.3z M91.8,17.8c0-1.5,0.1-3,0-4.5c-0.4-3.6-3.3-6.3-6.7-6.5
		c-3.6-0.1-6.8,2.6-7.2,6.4c-0.3,3.1-0.3,6.3,0,9.4c0.4,3.6,3.6,6.2,7,6.1c3.5-0.1,6.4-2.8,6.8-6.4C91.9,20.8,91.8,19.3,91.8,17.8z
		 M40.1,17.8C40.2,17.8,40.2,17.8,40.1,17.8c0.1-1.4,0.2-2.7,0-4.1c-0.3-4-3.1-6.8-6.8-7c-3.7-0.2-6.9,2.6-7.3,6.7
		c-0.2,3-0.2,6,0.1,9c0.4,3.6,3.5,6.2,7,6.2c3.5-0.1,6.5-2.7,6.9-6.3C40.3,20.8,40.1,19.3,40.1,17.8z"/>
	<path d="M7.8,19.3c4.7,0,9.3,0,13.8,0c2.3,11.4,5.4,15,12.5,14.6c6.6-0.4,9.7-4.6,10.6-14.3c9.5,0,19.1,0,28.7,0
		c1.9,10.8,5,14.6,12.1,14.3c6.6-0.3,9.8-4.4,10.9-14.4c4.5,0,9.1,0,14,0c0,30.5,0,61,0,91.6c-34.1,0-68.1,0-102.5,0
		C7.8,80.6,7.8,50.1,7.8,19.3z M103.2,45.3c-29.7,0-58.9,0-88.2,0c0,19.7,0,39.1,0,58.5c29.5,0,58.8,0,88.2,0
		C103.2,84.3,103.2,64.9,103.2,45.3z"/>
	<path d="M91.8,17.8c0,1.5,0.1,3,0,4.5c-0.4,3.6-3.4,6.3-6.8,6.4c-3.4,0.1-6.7-2.5-7-6.1c-0.3-3.1-0.3-6.3,0-9.4
		c0.3-3.8,3.6-6.6,7.2-6.4c3.5,0.1,6.4,2.8,6.7,6.5C91.9,14.7,91.8,16.3,91.8,17.8z"/>
	<path d="M40.1,17.8c0,1.5,0.2,3,0,4.5c-0.4,3.6-3.4,6.3-6.9,6.3c-3.4,0.1-6.6-2.5-7-6.2c-0.3-3-0.3-6-0.1-9
		c0.3-4.1,3.6-6.9,7.3-6.7c3.7,0.2,6.4,3,6.8,7C40.3,15.1,40.2,16.4,40.1,17.8C40.2,17.8,40.2,17.8,40.1,17.8z"/>
	<path class="st0" d="M103.2,45.3c0,19.6,0,38.9,0,58.5c-29.4,0-58.6,0-88.2,0c0-19.4,0-38.8,0-58.5C44.3,45.3,73.5,45.3,103.2,45.3
		z M44.7,70.3c0,3.4,0,6.6,0,9.7c3.8,0,7.3,0,10.9,0c0-3.3,0-6.4,0-9.7C51.9,70.3,48.3,70.3,44.7,70.3z M63.4,70.3
		c0,3.5,0,6.6,0,9.7c3.8,0,7.4,0,10.9,0c0-3.4,0-6.4,0-9.7C70.6,70.3,67.2,70.3,63.4,70.3z M80.8,79.9c3.9,0,7.5,0,11,0
		c0-3.4,0-6.4,0-9.6c-3.8,0-7.3,0-11,0C80.8,73.6,80.8,76.6,80.8,79.9z M55.7,53.4c-3.9,0-7.4,0-11.1,0c0,3.3,0,6.3,0,9.5
		c3.8,0,7.4,0,11.1,0C55.7,59.6,55.7,56.7,55.7,53.4z M63.4,62.8c3.6,0,7.3,0,10.9,0c0-3.3,0-6.3,0-9.4c-3.8,0-7.3,0-10.9,0
		C63.4,56.5,63.4,59.5,63.4,62.8z M91.7,63c0-3.5,0-6.5,0-9.6c-3.8,0-7.3,0-10.9,0c0,3.3,0,6.4,0,9.6C84.6,63,88,63,91.7,63z
		 M37.2,97.3c0-3.2,0-6.3,0-9.5c-3.8,0-7.4,0-10.9,0c0,3.3,0,6.4,0,9.5C30.1,97.3,33.5,97.3,37.2,97.3z M55.6,97.4
		c0-3.4,0-6.5,0-9.6c-3.8,0-7.4,0-10.9,0c0,3.4,0,6.4,0,9.6C48.4,97.4,51.8,97.4,55.6,97.4z M63.5,87.7c0,3.2,0,6.4,0,9.6
		c3.8,0,7.3,0,10.8,0c0-3.4,0-6.4,0-9.6C70.6,87.7,67.2,87.7,63.5,87.7z M80.9,87.8c0,3.4,0,6.5,0,9.5c3.8,0,7.2,0,10.9,0
		c0-3.2,0-6.3,0-9.5C88.1,87.8,84.6,87.8,80.9,87.8z"/>
	<path d="M44.7,70.3c3.6,0,7.2,0,10.9,0c0,3.3,0,6.4,0,9.7c-3.7,0-7.1,0-10.9,0C44.7,76.9,44.7,73.7,44.7,70.3z"/>
	<path d="M63.4,70.3c3.7,0,7.2,0,10.9,0c0,3.3,0,6.3,0,9.7c-3.5,0-7.1,0-10.9,0C63.4,76.9,63.4,73.8,63.4,70.3z"/>
	<path d="M80.8,79.9c0-3.3,0-6.3,0-9.6c3.7,0,7.1,0,11,0c0,3.1,0,6.2,0,9.6C88.2,79.9,84.6,79.9,80.8,79.9z"/>
	<path d="M55.7,53.4c0,3.3,0,6.3,0,9.5c-3.7,0-7.3,0-11.1,0c0-3.2,0-6.2,0-9.5C48.3,53.4,51.7,53.4,55.7,53.4z"/>
	<path d="M63.4,62.8c0-3.3,0-6.3,0-9.4c3.7,0,7.2,0,10.9,0c0,3.1,0,6.2,0,9.4C70.7,62.8,67,62.8,63.4,62.8z"/>
	<path d="M91.7,63c-3.7,0-7.1,0-10.9,0c0-3.2,0-6.2,0-9.6c3.6,0,7.1,0,10.9,0C91.7,56.4,91.7,59.5,91.7,63z"/>
	<path d="M37.2,97.3c-3.7,0-7.2,0-10.9,0c0-3.1,0-6.1,0-9.5c3.6,0,7.1,0,10.9,0C37.2,91.1,37.2,94.1,37.2,97.3z"/>
	<path d="M55.6,97.4c-3.8,0-7.2,0-10.9,0c0-3.1,0-6.2,0-9.6c3.5,0,7,0,10.9,0C55.6,91,55.6,94,55.6,97.4z"/>
	<path d="M63.5,87.7c3.7,0,7.1,0,10.8,0c0,3.2,0,6.2,0,9.6c-3.5,0-7.1,0-10.8,0C63.5,94,63.5,90.9,63.5,87.7z"/>
	<path d="M80.9,87.8c3.8,0,7.2,0,10.9,0c0,3.3,0,6.3,0,9.5c-3.7,0-7.2,0-10.9,0C80.9,94.2,80.9,91.2,80.9,87.8z"/>
</g>
<path d="M26.3,70.3c3.6,0,7.2,0,10.9,0c0,3.3,0,6.4,0,9.7c-3.7,0-7.1,0-10.9,0C26.3,76.8,26.3,73.7,26.3,70.3z"/>
<polygon class="st1" points="79.3,62.8 99.4,52.2 95.6,74.6 111.8,90.4 89.4,93.7 79.3,114 69.3,93.7 46.9,90.4 63.1,74.6 
	59.3,52.2 "/>
</svg>
